<?xml version="1.0" encoding="UTF-8" standalone="no"?>
<svg
   xmlns:dc="http://purl.org/dc/elements/1.1/"
   xmlns:cc="http://creativecommons.org/ns#"
   xmlns:rdf="http://www.w3.org/1999/02/22-rdf-syntax-ns#"
   xmlns:svg="http://www.w3.org/2000/svg"
   xmlns="http://www.w3.org/2000/svg"
   xmlns:sodipodi="http://sodipodi.sourceforge.net/DTD/sodipodi-0.dtd"
   xmlns:inkscape="http://www.inkscape.org/namespaces/inkscape"
   width="210mm"
   height="297mm"
   viewBox="0 0 210 297"
   version="1.1"
   id="svg8"
   inkscape:version="1.0.2 (e86c870879, 2021-01-15, custom)"
   sodipodi:docname="drawing.svg">
  <defs
     id="defs2" />
  <sodipodi:namedview
     id="base"
     pagecolor="#ffffff"
     bordercolor="#666666"
     borderopacity="1.0"
     inkscape:pageopacity="0.0"
     inkscape:pageshadow="2"
     inkscape:zoom="0.35"
     inkscape:cx="30.40824"
     inkscape:cy="509.32189"
     inkscape:document-units="mm"
     inkscape:current-layer="layer1"
     inkscape:document-rotation="0"
     showgrid="false"
     inkscape:window-width="1431"
     inkscape:window-height="1019"
     inkscape:window-x="224"
     inkscape:window-y="0"
     inkscape:window-maximized="0" />
  <metadata
     id="metadata5">
    <rdf:RDF>
      <cc:Work
         rdf:about="">
        <dc:format>image/svg+xml</dc:format>
        <dc:type
           rdf:resource="http://purl.org/dc/dcmitype/StillImage" />
        <dc:title></dc:title>
      </cc:Work>
    </rdf:RDF>
  </metadata>
  <g
     inkscape:label="Layer 1"
     inkscape:groupmode="layer"
     id="layer1">
    <path
       style="fill:#1e0706;fill-opacity:1;stroke:none;stroke-width:0.855906"
       d="m 126.94121,48.86602 v 1.71182 l 3.42362,0.8559 v 0.85591 l -5.13544,-0.85591 0.85591,3.42363 2.56772,0.8559 c -4.72204,3.035558 -6.92771,1.527622 -11.98269,0.855907 l 0.85591,-2.567717 -13.74072,11.298473 -21.351432,5.819648 v 1.711812 l 3.42362,4.27953 c -3.92989,-0.01044 -8.06939,-1.221977 -10.27087,2.56772 l -13.6945,0.855906 v 0.855906 c 7.61808,0.06308 26.30713,7.042909 31.66853,0 h 0.8559 c 2.12693,1.771297 4.37968,-0.730773 6.847252,-1.343944 4.65613,-1.157014 10.7305,2.088069 12.83859,-3.791494 H 89.281338 l -0.85591,-4.27953 17.974032,-5.389726 14.5504,2.822008 v -0.855907 h -5.13543 v -5.135436 l 4.27953,-1.711812 28.2449,5.991342 -1.71181,1.711813 5.13543,2.567718 -3.42362,-2.567718 v -0.855907 l 12.83859,6.847249 v 0.855906 h -2.56772 v 0.855906 l 7.70315,5.991344 c 2.74318,-6.726481 -2.8767,-12.56068 -6.67178,-17.482054 C 152.45919,56.306243 140.54754,42.3183 126.94121,48.86602 m -7.98818,4.56481 0.57004,0.28536 -0.57004,-0.28536 m 3.70865,-0.28528 1.71181,1.71182 -1.71181,-1.71182 m 6.84724,1.14118 c 0.66162,0 0.13695,0.42616 -0.28501,0.28536 l 0.28501,-0.28536 m 5.13544,1.42654 -0.85591,0.855907 0.85591,-0.855907 m -1.71181,1.711813 v 2.567719 h -7.70316 l 7.70316,-2.567719 m -10.27087,1.997086 c 0.66161,0 0.13694,0.426156 -0.28502,0.285359 l 0.28502,-0.285359 m 17.11812,2.282445 v 0.855906 h -2.56772 l 2.56772,-0.855906 m 16.26221,0 -0.8559,0.855906 0.8559,-0.855906 m -40.22758,0.855906 -0.85591,0.855906 0.85591,-0.855906 m -0.85591,2.567718 v 2.567718 L 112.3908,66.84005 v -0.855906 l 2.56772,-0.855906 m 5.99134,0 0.85591,0.855906 -0.85591,-0.855906 m 1.71182,3.423624 0.8559,0.855907 -0.8559,-0.855907 m 20.54174,0 0.85591,0.855907 -0.85591,-0.855907 m -17.97403,0.855907 0.85591,0.855906 -0.85591,-0.855906 m 5.99135,0 0.8559,0.855906 -0.8559,-0.855906 m 13.1236,1.426538 0.28588,0.570547 -0.28588,-0.570547 m -14.83542,0.285274 v 0.855906 l 3.42363,0.855906 v -0.855906 l -3.42363,-0.855906 m 18.82994,0 0.8559,0.855906 -0.8559,-0.855906 m -11.98269,0.855906 0.85591,0.855906 -0.85591,-0.855906 m 5.99134,0.855906 0.85591,0.855906 -0.85591,-0.855906 m 7.70316,0 0.85591,0.855906 -0.85591,-0.855906 m -11.98269,0.855906 0.85591,0.855906 -0.85591,-0.855906 m 16.26222,0 3.42362,2.567718 v -0.855906 l -3.42362,-1.711812 m -11.98269,0.855906 v 0.855906 h 5.13544 l -5.13544,-0.855906 m 7.70316,0 0.85591,0.855906 -0.85591,-0.855906 m 3.42362,1.711812 v 2.56772 l 7.70316,3.423624 -1.71181,-2.567718 2.56771,-0.855906 V 77.96683 l -8.55906,-1.711813 m -84.164062,1.997087 0.57054,0.285359 -0.57054,-0.285359 m 87.587692,1.426539 -2.56772,-0.855906 2.56772,0.855906 m -88.158332,6.847248 v 2.567719 0.855906 l 21.39765,1.711813 -0.8559,5.99134 -0.85591,0.85591 -1.71181,-0.85591 0.85591,4.279531 -4.27953,3.42362 -2.56772,-1.71181 -3.42363,5.13544 -7.70315,8.55906 h -0.85591 v -2.56772 l -4.27953,-2.56772 -2.56772,-0.8559 h -0.8559 l -0.85591,7.70315 h -0.8559 l 0.8559,-5.13543 -2.56772,5.13543 h -0.8559 l -0.85591,-5.99134 h -0.8559 v 5.99134 l -3.42363,-3.42362 -0.85591,5.13543 -4.27953,-0.8559 0.85591,-2.56772 c -6.17862,-7.58307 1.19305,-18.507861 7.70316,-23.109461 l -0.85591,-3.42363 -7.70316,0.85591 0.85591,-5.991344 c -14.52182,6.108514 -19.56216,23.260015 -20.61767,37.659865 -2.16518,29.53732 13.67019,66.69563 39.52421,83.16925 5.16462,3.29096 11.28503,2.09441 17.04152,2.49839 12.43289,0.87132 23.502322,0.88159 35.948052,0.77888 l -0.85591,-2.56772 c 10.29998,0 16.8896,-11.67713 22.25356,-18.82993 16.8177,-22.42303 27.55847,-55.98225 17.97403,-84.73471 -2.22878,-6.685481 -6.10175,-14.419104 -11.98268,-18.829931 -2.94175,-2.206526 -9.83522,-3.455122 -9.41497,-5.135436 l -16.22884,-0.661102 -7.74937,3.716858 -17.961192,1.934347 -26.53309,1.857145 m 26.24807,-6.276616 -0.28587,0.570547 0.28587,-0.570547 m -20.25672,1.426453 0.28527,0.285359 c -0.42239,0.140797 -0.94723,-0.285359 -0.28527,-0.285359 m 87.302412,0.570633 v 0.855906 l 3.42363,0.855906 v -0.855906 l -3.42363,-0.855906 m -71.040202,11.126778 -0.85591,0.85591 0.85591,-0.85591 m -44.50712,2.56772 -0.8559,0.8559 0.8559,-0.8559 m 43.65121,0 -0.8559,0.8559 0.8559,-0.8559 m 61.625242,5.991341 c 3.00166,6.96836 12.46713,26.66148 3.42363,32.52443 l -0.4408,-15.40631 -2.98283,-17.11812 m -62.481142,0.85591 v 2.56771 l -1.71181,-0.8559 v -0.85591 l 1.71181,-0.8559 m -26.53309,11.98268 h 0.85591 l -1.71182,4.27953 0.85591,-4.27953 m -9.41497,2.56772 -0.8559,0.85591 0.8559,-0.85591 m 0,5.13544 v 1.71181 h -1.71181 l 1.71181,-1.71181 m 10.27088,1.14092 c 0.66195,0 0.13711,0.42624 -0.28528,0.28587 l 0.28528,-0.28587 m 92.437852,12.55357 v 3.42363 h -0.8559 z"
       id="path847" />
  </g>
</svg>
