<?xml version="1.0" encoding="UTF-8" standalone="no"?>
<svg
   xmlns:dc="http://purl.org/dc/elements/1.1/"
   xmlns:cc="http://creativecommons.org/ns#"
   xmlns:rdf="http://www.w3.org/1999/02/22-rdf-syntax-ns#"
   xmlns:svg="http://www.w3.org/2000/svg"
   xmlns="http://www.w3.org/2000/svg"
   xmlns:sodipodi="http://sodipodi.sourceforge.net/DTD/sodipodi-0.dtd"
   xmlns:inkscape="http://www.inkscape.org/namespaces/inkscape"
   width="210mm"
   height="297mm"
   viewBox="0 0 210 297"
   version="1.1"
   id="svg8"
   inkscape:version="1.0.2 (e86c870879, 2021-01-15, custom)"
   sodipodi:docname="honey.svg">
  <defs
     id="defs2">
    <inkscape:path-effect
       effect="bspline"
       id="path-effect972"
       is_visible="true"
       lpeversion="1"
       weight="33.333333"
       steps="2"
       helper_size="0"
       apply_no_weight="true"
       apply_with_weight="true"
       only_selected="false" />
    <inkscape:path-effect
       effect="bspline"
       id="path-effect970"
       is_visible="true"
       lpeversion="1"
       weight="33.333333"
       steps="2"
       helper_size="0"
       apply_no_weight="true"
       apply_with_weight="true"
       only_selected="false" />
    <inkscape:path-effect
       effect="bspline"
       id="path-effect968"
       is_visible="true"
       lpeversion="1"
       weight="33.333333"
       steps="2"
       helper_size="0"
       apply_no_weight="true"
       apply_with_weight="true"
       only_selected="false" />
    <inkscape:path-effect
       effect="bspline"
       id="path-effect947"
       is_visible="true"
       lpeversion="1"
       weight="33.333333"
       steps="2"
       helper_size="0"
       apply_no_weight="true"
       apply_with_weight="true"
       only_selected="false" />
    <inkscape:path-effect
       effect="bspline"
       id="path-effect939"
       is_visible="true"
       lpeversion="1"
       weight="33.333333"
       steps="2"
       helper_size="0"
       apply_no_weight="true"
       apply_with_weight="true"
       only_selected="false" />
    <inkscape:path-effect
       effect="bspline"
       id="path-effect935"
       is_visible="true"
       lpeversion="1"
       weight="33.333333"
       steps="2"
       helper_size="0"
       apply_no_weight="true"
       apply_with_weight="true"
       only_selected="false" />
    <inkscape:path-effect
       effect="bspline"
       id="path-effect904"
       is_visible="true"
       lpeversion="1"
       weight="33.333333"
       steps="2"
       helper_size="0"
       apply_no_weight="true"
       apply_with_weight="true"
       only_selected="false" />
    <inkscape:path-effect
       effect="bspline"
       id="path-effect900"
       is_visible="true"
       lpeversion="1"
       weight="33.333333"
       steps="2"
       helper_size="0"
       apply_no_weight="true"
       apply_with_weight="true"
       only_selected="false" />
    <inkscape:path-effect
       effect="bspline"
       id="path-effect896"
       is_visible="true"
       lpeversion="1"
       weight="33.333333"
       steps="2"
       helper_size="0"
       apply_no_weight="true"
       apply_with_weight="true"
       only_selected="false" />
    <inkscape:path-effect
       effect="bspline"
       id="path-effect841"
       is_visible="true"
       lpeversion="1"
       weight="33.333333"
       steps="2"
       helper_size="0"
       apply_no_weight="true"
       apply_with_weight="true"
       only_selected="false" />
    <inkscape:path-effect
       effect="bspline"
       id="path-effect837"
       is_visible="true"
       lpeversion="1"
       weight="33.333333"
       steps="2"
       helper_size="0"
       apply_no_weight="true"
       apply_with_weight="true"
       only_selected="false" />
  </defs>
  <sodipodi:namedview
     id="base"
     pagecolor="#ffffff"
     bordercolor="#666666"
     borderopacity="1.0"
     inkscape:pageopacity="0.0"
     inkscape:pageshadow="2"
     inkscape:zoom="0.074414063"
     inkscape:cx="-4994.8714"
     inkscape:cy="-708.39885"
     inkscape:document-units="mm"
     inkscape:current-layer="g1004"
     inkscape:document-rotation="0"
     showgrid="false"
     inkscape:window-width="1431"
     inkscape:window-height="1019"
     inkscape:window-x="160"
     inkscape:window-y="0"
     inkscape:window-maximized="0" />
  <metadata
     id="metadata5">
    <rdf:RDF>
      <cc:Work
         rdf:about="">
        <dc:format>image/svg+xml</dc:format>
        <dc:type
           rdf:resource="http://purl.org/dc/dcmitype/StillImage" />
        <dc:title />
      </cc:Work>
    </rdf:RDF>
  </metadata>
  <g
     inkscape:label="Layer 1"
     inkscape:groupmode="layer"
     id="layer1">
    <rect
       style="opacity:0;fill:#46b89a;fill-opacity:1;stroke-width:25.962;stroke-linecap:round;stroke-linejoin:round;paint-order:fill markers stroke"
       id="rect868"
       width="780.44458"
       height="780.44434"
       x="-486.02277"
       y="-619.19226"
       ry="12.340272"
       inkscape:export-xdpi="13.018221"
       inkscape:export-ydpi="13.018221" />
    <g
       id="g1004"
       transform="translate(-1147.9338,-592.28706)">
      <path
         sodipodi:type="star"
         style="fill:none;stroke:#000000;stroke-width:13.575;stroke-linecap:round;stroke-linejoin:round;stroke-miterlimit:4;stroke-dasharray:none;stroke-opacity:1;paint-order:fill markers stroke"
         id="path833"
         sodipodi:sides="6"
         sodipodi:cx="15.119047"
         sodipodi:cy="86.934525"
         sodipodi:r1="90.262741"
         sodipodi:r2="78.528587"
         sodipodi:arg1="0.93399529"
         sodipodi:arg2="1.4575941"
         inkscape:flatsided="false"
         inkscape:rounded="0"
         inkscape:randomized="0"
         d="m 68.791666,159.50595 -44.801982,5.45454 -44.883029,4.7416 L -48.0181,133.6297 -74.565964,97.130661 -56.888737,55.60374 -38.553572,14.363095 6.2484104,8.908562 51.131439,4.1669581 78.256195,40.239346 104.80406,76.738388 87.126831,118.26531 Z"
         inkscape:transform-center-x="12.781315"
         inkscape:transform-center-y="9.0865196"
         transform="matrix(1.0668554,-1.5101598,1.5101598,1.0668554,-108.46091,72.699936)" />
      <path
         style="fill:none;stroke:#db7c0c;stroke-width:22.493;stroke-linecap:butt;stroke-linejoin:miter;stroke-miterlimit:4;stroke-dasharray:none;stroke-opacity:1"
         d="m -41.329197,288.93081 c -21.496019,37.2322 -42.991931,74.46421 -64.487763,111.69609"
         id="path835"
         inkscape:path-effect="#path-effect837"
         inkscape:original-d="m -41.329197,288.93081 c -21.49543,37.23254 -42.99135,74.46455 -64.487763,111.69609" />
      <path
         style="fill:none;stroke:#000000;stroke-width:76.2986;stroke-linecap:butt;stroke-linejoin:round;stroke-miterlimit:4;stroke-dasharray:none;stroke-opacity:1"
         d="m -100.22596,393.63816 c -45.72365,70.77812 -91.44719,141.55609 -137.17067,212.33395"
         id="path839"
         inkscape:path-effect="#path-effect841"
         inkscape:original-d="m -100.22596,393.63816 c -45.72308,70.77849 -91.44663,141.55645 -137.17067,212.33395"
         sodipodi:nodetypes="cc" />
      <rect
         style="fill:#a86009;fill-opacity:1;stroke:none;stroke-width:27.5745;stroke-linecap:round;stroke-linejoin:round;stroke-miterlimit:4;stroke-dasharray:none;stroke-opacity:1;paint-order:fill markers stroke"
         id="rect851"
         width="96.647385"
         height="365.87939"
         x="75.070862"
         y="380.72931"
         ry="22.817053"
         transform="rotate(31.993282)" />
      <path
         sodipodi:type="star"
         style="fill:none;stroke:#db7c0c;stroke-width:22.375;stroke-linecap:round;stroke-linejoin:round;stroke-miterlimit:4;stroke-dasharray:none;stroke-opacity:1;paint-order:fill markers stroke"
         id="path855"
         sodipodi:sides="6"
         sodipodi:cx="15.119047"
         sodipodi:cy="86.934525"
         sodipodi:r1="90.262741"
         sodipodi:r2="78.528587"
         sodipodi:arg1="0.93399529"
         sodipodi:arg2="1.4575941"
         inkscape:flatsided="false"
         inkscape:rounded="0"
         inkscape:randomized="0"
         d="m 68.791666,159.50595 -44.801982,5.45454 -44.883029,4.7416 L -48.0181,133.6297 -74.565964,97.130661 -56.888737,55.60374 -38.553572,14.363095 6.2484104,8.908562 51.131439,4.1669581 78.256195,40.239346 104.80406,76.738388 87.126831,118.26531 Z"
         inkscape:transform-center-x="12.781315"
         inkscape:transform-center-y="9.0865196"
         transform="matrix(1.0668554,-1.5101598,1.5101598,1.0668554,-108.46091,72.699936)" />
      <g
         id="g966"
         transform="matrix(1.8489897,0,0,1.8489897,-691.4563,-256.78534)">
        <path
           sodipodi:type="star"
           style="fill:#f5ce09;fill-opacity:1;stroke:none;stroke-width:13.575;stroke-linecap:round;stroke-linejoin:round;stroke-miterlimit:4;stroke-dasharray:none;stroke-opacity:1;paint-order:fill markers stroke"
           id="path956"
           sodipodi:sides="6"
           sodipodi:cx="15.119047"
           sodipodi:cy="86.934525"
           sodipodi:r1="90.262741"
           sodipodi:r2="78.528587"
           sodipodi:arg1="0.93399529"
           sodipodi:arg2="1.4575941"
           inkscape:flatsided="false"
           inkscape:rounded="0"
           inkscape:randomized="0"
           d="m 68.791666,159.50595 -44.801982,5.45454 -44.883029,4.7416 L -48.0181,133.6297 -74.565964,97.130661 -56.888737,55.60374 -38.553572,14.363095 6.2484104,8.908562 51.131439,4.1669581 78.256195,40.239346 104.80406,76.738388 87.126831,118.26531 Z"
           inkscape:transform-center-x="5.2628358"
           inkscape:transform-center-y="3.7414726"
           transform="matrix(0.43928828,-0.62182325,0.62182325,0.43928828,334.33242,187.22163)" />
        <path
           style="fill:#fee821;fill-opacity:0.905882;stroke:none;stroke-width:0.264583px;stroke-linecap:butt;stroke-linejoin:miter;stroke-opacity:1"
           d="m 362.57364,169.7834 c -2.46171,1.93796 -5.81393,3.82358 -7.59486,5.34269 -1.78093,1.51912 -1.99043,2.67141 0.47153,2.8808 2.46196,0.20939 7.59493,-0.52389 11.3661,-1.78099 3.77118,-1.2571 6.18053,-3.03793 7.8566,-4.71399 1.67606,-1.67606 2.61886,-3.24738 1.41431,-4.50446 -1.20455,-1.25709 -4.55669,-2.19988 -7.01867,-1.6761 -2.46197,0.52377 -4.03329,2.5141 -6.49501,4.45205 z"
           id="path958"
           inkscape:path-effect="#path-effect968"
           inkscape:original-d="m 363.46404,169.83579 c -3.35193,1.88589 -6.70415,3.77151 -10.05663,5.65686 -0.20926,1.15261 -0.41875,2.30491 -0.62854,3.45697 5.13344,-0.73305 10.26641,-1.46633 15.39922,-2.19989 2.40972,-1.78063 4.81907,-3.56146 7.22821,-5.34259 0.94308,-1.57111 1.88587,-3.14243 2.82842,-4.71404 -3.352,-0.94256 -6.70414,-1.88535 -10.05663,-2.82843 -1.57112,1.99068 -3.14243,3.98102 -4.71405,5.97112 z" />
        <path
           style="fill:#fee821;fill-opacity:0.905882;stroke:none;stroke-width:0.264583px;stroke-linecap:butt;stroke-linejoin:miter;stroke-opacity:1"
           d="m 357.9533,183.16679 c 2.30464,-0.89043 5.55211,-2.14751 7.43781,-2.61879 1.88571,-0.47128 2.40948,-0.15702 1.30936,1.25712 -1.10012,1.41414 -3.82373,3.92825 -6.07587,4.97585 -2.25214,1.04761 -4.03296,0.62859 -5.23769,0.1049 -1.20474,-0.5237 -1.83326,-1.15222 -1.46666,-1.72855 0.3666,-0.57633 1.72841,-1.1001 4.03305,-1.99053 z"
           id="path960"
           inkscape:path-effect="#path-effect970"
           inkscape:original-d="m 357.01036,183.53349 c 3.2477,-1.25681 6.49517,-2.51389 9.74235,-3.77123 0.52406,0.31454 1.04783,0.6288 1.57136,0.9428 -2.72346,2.51448 -5.44708,5.02858 -8.17102,7.54248 -1.78064,-0.41877 -3.56145,-0.83779 -5.3426,-1.25708 -0.62828,-0.62829 -1.25679,-1.25682 -1.8856,-1.88562 1.36212,-0.52353 2.72393,-1.0473 4.08551,-1.57135 z" />
        <path
           id="path962"
           style="fill:#feb717;fill-opacity:0.6;stroke:none;stroke-width:0.999999px;stroke-linecap:butt;stroke-linejoin:miter;stroke-opacity:1"
           d="m 1729.0293,771.0332 c -4.1563,2.38476 -8.8792,5.61328 -14.3652,9.48242 -18.8937,13.32526 -46.6087,33.91354 -64.6231,43.41602 -18.0144,9.50248 -26.3293,7.91877 -42.3652,15.44141 -16.0359,7.52264 -39.7916,24.15041 -58.9942,34.64257 -19.2025,10.49217 -33.8515,14.84753 -61.9628,17.61915 -28.1114,2.77161 -69.6838,3.95895 -107.6934,1.1875 -38.0096,-2.77146 -72.4534,-9.50215 -90.6035,-12.82422 -18.1502,-3.32207 -20.0054,-3.23435 -20.6524,-2.98047 -0.3219,0.12634 -0.3487,0.29833 -0.998,1.10742 l 33.0742,55.50391 68.2481,110.49219 129.8574,-1.7949 129.8125,-3.8574 63.375,-113.35552 61.5664,-114.34961 z"
           transform="scale(0.26458333)" />
        <path
           style="fill:#fee821;fill-opacity:0.905882;stroke:none;stroke-width:0.264583px;stroke-linecap:butt;stroke-linejoin:miter;stroke-opacity:1"
           d="m 447.2131,230.4631 c -0.17586,-0.68502 -0.9166,-1.79612 -2.06483,-1.87037 -1.14824,-0.0742 -2.70375,0.8887 -5.20248,2.53928 -2.49873,1.65058 -5.94038,3.98862 -8.6442,6.65541 -2.70383,2.66679 -4.66936,5.66189 -5.03162,7.26133 -0.36225,1.59944 0.87846,1.80314 2.87848,1.91424 2.00002,0.1111 4.75922,0.12963 6.76833,-1.19441 2.00911,-1.32404 3.26834,-3.99065 4.71282,-6.36108 1.44447,-2.37044 3.07407,-4.44447 4.10187,-5.68523 1.02779,-1.24076 1.45371,-1.64816 1.86115,-1.98152 0.40745,-0.33336 0.79633,-0.59263 0.62048,-1.27765 z"
           id="path964"
           inkscape:path-effect="#path-effect972"
           inkscape:original-d="m 447.77778,230.88889 c -0.74048,-1.11085 -1.48121,-2.22196 -2.22223,-3.33334 -1.55533,0.96325 -3.11084,1.92619 -4.66667,2.88889 -3.44161,2.33846 -6.88326,4.6765 -10.32543,7.01444 -1.96538,2.99553 -3.93092,5.99063 -5.89678,8.98556 1.24101,0.20397 2.48172,0.40767 3.72222,0.61111 2.75958,0.0188 5.51878,0.0373 8.27777,0.0556 1.25955,-2.66646 2.51878,-5.33307 3.77777,-8 1.62994,-2.07385 3.25954,-4.14789 4.8889,-6.22223 0.42619,-0.40714 0.85211,-0.81454 1.27778,-1.22221 0.38916,-0.25901 0.77805,-0.51828 1.16667,-0.77782 z"
           sodipodi:nodetypes="ccccccccccc" />
      </g>
    </g>
    <g
       id="g881"
       inkscape:export-xdpi="13.018221"
       inkscape:export-ydpi="13.018221"
       transform="matrix(1.4847692,0,0,1.4847692,88.882498,105.92439)">
      <g
         id="g991"
         transform="matrix(1.2762483,0,0,1.2762483,-629.83751,-358.23079)">
        <path
           id="path857"
           style="fill:none;stroke:#db7c0c;stroke-width:22.375;stroke-linecap:round;stroke-linejoin:round;stroke-miterlimit:4;stroke-dasharray:none;stroke-opacity:1;paint-order:fill markers stroke"
           inkscape:transform-center-x="6.9920876"
           inkscape:transform-center-y="4.8005491"
           d="m 91.741239,58.536028 13.062821,18.20236 -17.677229,41.526922 -18.335165,41.24064 -44.801982,5.45454 -44.883029,4.7416 L -48.0181,133.6297 -74.565964,97.130661 -56.888737,55.60374 -38.553572,14.363095 6.2484104,8.908562 51.131439,4.1669581 64.556302,22.177838 55.597929,10.007558"
           sodipodi:nodetypes="cccccccccccccc"
           transform="rotate(-53.823035,331.89559,-224.18784)" />
        <path
           id="rect866"
           style="fill:none;fill-opacity:1;stroke:#db7c0c;stroke-width:22.375;stroke-linecap:round;stroke-linejoin:round;stroke-miterlimit:4;stroke-dasharray:none;stroke-opacity:1;paint-order:fill markers stroke"
           d="M 373.77367,136.81181 374.56019,5.7758093 m 43.76313,0.2777778 -0.0833,128.1514429"
           sodipodi:nodetypes="cccc" />
        <path
           style="fill:none;stroke:#db7c0c;stroke-width:22.375;stroke-linecap:round;stroke-linejoin:miter;stroke-miterlimit:4;stroke-dasharray:none;stroke-opacity:1"
           d="M 374.5602,5.7758091 H 351.19638"
           id="path876" />
        <g
           id="g954">
          <path
             sodipodi:type="star"
             style="fill:#f5ce09;fill-opacity:1;stroke:none;stroke-width:13.575;stroke-linecap:round;stroke-linejoin:round;stroke-miterlimit:4;stroke-dasharray:none;stroke-opacity:1;paint-order:fill markers stroke"
             id="path859"
             sodipodi:sides="6"
             sodipodi:cx="15.119047"
             sodipodi:cy="86.934525"
             sodipodi:r1="90.262741"
             sodipodi:r2="78.528587"
             sodipodi:arg1="0.93399529"
             sodipodi:arg2="1.4575941"
             inkscape:flatsided="false"
             inkscape:rounded="0"
             inkscape:randomized="0"
             d="m 68.791666,159.50595 -44.801982,5.45454 -44.883029,4.7416 L -48.0181,133.6297 -74.565964,97.130661 -56.888737,55.60374 -38.553572,14.363095 6.2484104,8.908562 51.131439,4.1669581 78.256195,40.239346 104.80406,76.738388 87.126831,118.26531 Z"
             inkscape:transform-center-x="5.2628358"
             inkscape:transform-center-y="3.7414726"
             transform="matrix(0.43928828,-0.62182325,0.62182325,0.43928828,334.33242,187.22163)" />
          <path
             style="fill:#fee821;fill-opacity:0.905882;stroke:none;stroke-width:0.264583px;stroke-linecap:butt;stroke-linejoin:miter;stroke-opacity:1"
             d="m 362.57364,169.7834 c -2.46171,1.93796 -5.81393,3.82358 -7.59486,5.34269 -1.78093,1.51912 -1.99043,2.67141 0.47153,2.8808 2.46196,0.20939 7.59493,-0.52389 11.3661,-1.78099 3.77118,-1.2571 6.18053,-3.03793 7.8566,-4.71399 1.67606,-1.67606 2.61886,-3.24738 1.41431,-4.50446 -1.20455,-1.25709 -4.55669,-2.19988 -7.01867,-1.6761 -2.46197,0.52377 -4.03329,2.5141 -6.49501,4.45205 z"
             id="path894"
             inkscape:path-effect="#path-effect896"
             inkscape:original-d="m 363.46404,169.83579 c -3.35193,1.88589 -6.70415,3.77151 -10.05663,5.65686 -0.20926,1.15261 -0.41875,2.30491 -0.62854,3.45697 5.13344,-0.73305 10.26641,-1.46633 15.39922,-2.19989 2.40972,-1.78063 4.81907,-3.56146 7.22821,-5.34259 0.94308,-1.57111 1.88587,-3.14243 2.82842,-4.71404 -3.352,-0.94256 -6.70414,-1.88535 -10.05663,-2.82843 -1.57112,1.99068 -3.14243,3.98102 -4.71405,5.97112 z" />
          <path
             style="fill:#fee821;fill-opacity:0.905882;stroke:none;stroke-width:0.264583px;stroke-linecap:butt;stroke-linejoin:miter;stroke-opacity:1"
             d="m 357.9533,183.16679 c 2.30464,-0.89043 5.55211,-2.14751 7.43781,-2.61879 1.88571,-0.47128 2.40948,-0.15702 1.30936,1.25712 -1.10012,1.41414 -3.82373,3.92825 -6.07587,4.97585 -2.25214,1.04761 -4.03296,0.62859 -5.23769,0.1049 -1.20474,-0.5237 -1.83326,-1.15222 -1.46666,-1.72855 0.3666,-0.57633 1.72841,-1.1001 4.03305,-1.99053 z"
             id="path898"
             inkscape:path-effect="#path-effect900"
             inkscape:original-d="m 357.01036,183.53349 c 3.2477,-1.25681 6.49517,-2.51389 9.74235,-3.77123 0.52406,0.31454 1.04783,0.6288 1.57136,0.9428 -2.72346,2.51448 -5.44708,5.02858 -8.17102,7.54248 -1.78064,-0.41877 -3.56145,-0.83779 -5.3426,-1.25708 -0.62828,-0.62829 -1.25679,-1.25682 -1.8856,-1.88562 1.36212,-0.52353 2.72393,-1.0473 4.08551,-1.57135 z" />
          <path
             id="path902"
             style="fill:#feb717;fill-opacity:0.6;stroke:none;stroke-width:0.999999px;stroke-linecap:butt;stroke-linejoin:miter;stroke-opacity:1"
             d="m 1729.0293,771.0332 c -4.1563,2.38476 -8.8792,5.61328 -14.3652,9.48242 -18.8937,13.32526 -46.6087,33.91354 -64.6231,43.41602 -18.0144,9.50248 -26.3293,7.91877 -42.3652,15.44141 -16.0359,7.52264 -39.7916,24.15041 -58.9942,34.64257 -19.2025,10.49217 -33.8515,14.84753 -61.9628,17.61915 -28.1114,2.77161 -69.6838,3.95895 -107.6934,1.1875 -38.0096,-2.77146 -72.4534,-9.50215 -90.6035,-12.82422 -18.1502,-3.32207 -20.0054,-3.23435 -20.6524,-2.98047 -0.3219,0.12634 -0.3487,0.29833 -0.998,1.10742 l 33.0742,55.50391 68.2481,110.49219 129.8574,-1.7949 129.8125,-3.8574 63.375,-113.35552 61.5664,-114.34961 z"
             transform="scale(0.26458333)" />
          <path
             style="fill:#fee821;fill-opacity:0.905882;stroke:none;stroke-width:0.264583px;stroke-linecap:butt;stroke-linejoin:miter;stroke-opacity:1"
             d="m 447.2131,230.4631 c -0.17586,-0.68502 -0.9166,-1.79612 -2.06483,-1.87037 -1.14824,-0.0742 -2.70375,0.8887 -5.20248,2.53928 -2.49873,1.65058 -5.94038,3.98862 -8.6442,6.65541 -2.70383,2.66679 -4.66936,5.66189 -5.03162,7.26133 -0.36225,1.59944 0.87846,1.80314 2.87848,1.91424 2.00002,0.1111 4.75922,0.12963 6.76833,-1.19441 2.00911,-1.32404 3.26834,-3.99065 4.71282,-6.36108 1.44447,-2.37044 3.07407,-4.44447 4.10187,-5.68523 1.02779,-1.24076 1.45371,-1.64816 1.86115,-1.98152 0.40745,-0.33336 0.79633,-0.59263 0.62048,-1.27765 z"
             id="path945"
             inkscape:path-effect="#path-effect947"
             inkscape:original-d="m 447.77778,230.88889 c -0.74048,-1.11085 -1.48121,-2.22196 -2.22223,-3.33334 -1.55533,0.96325 -3.11084,1.92619 -4.66667,2.88889 -3.44161,2.33846 -6.88326,4.6765 -10.32543,7.01444 -1.96538,2.99553 -3.93092,5.99063 -5.89678,8.98556 1.24101,0.20397 2.48172,0.40767 3.72222,0.61111 2.75958,0.0188 5.51878,0.0373 8.27777,0.0556 1.25955,-2.66646 2.51878,-5.33307 3.77777,-8 1.62994,-2.07385 3.25954,-4.14789 4.8889,-6.22223 0.42619,-0.40714 0.85211,-0.81454 1.27778,-1.22221 0.38916,-0.25901 0.77805,-0.51828 1.16667,-0.77782 z"
             sodipodi:nodetypes="ccccccccccc" />
        </g>
        <rect
           style="fill:#db7c0c;fill-opacity:1;stroke:none;stroke-width:25.962;stroke-linecap:round;stroke-linejoin:round;stroke-miterlimit:4;stroke-dasharray:none;stroke-dashoffset:0;stroke-opacity:1;paint-order:fill markers stroke"
           id="rect974"
           width="52.325901"
           height="23.482952"
           x="333.28299"
           y="-6.5123897"
           ry="11.741476"
           rx="3.7712362" />
        <rect
           style="fill:#db7c0c;fill-opacity:1;stroke:none;stroke-width:25.962;stroke-linecap:round;stroke-linejoin:round;stroke-miterlimit:4;stroke-dasharray:none;stroke-dashoffset:0;stroke-opacity:1;paint-order:fill markers stroke"
           id="rect978"
           width="52.325901"
           height="23.482952"
           x="408.83853"
           y="-6.5123897"
           ry="11.741476"
           rx="3.7712362" />
      </g>
      <circle
         style="fill:#f5ce09;fill-opacity:1;fill-rule:evenodd;stroke-width:0.28592"
         id="path1006"
         cx="-20.998171"
         cy="-455.04898"
         r="29.777777"
         transform="rotate(-4.2954687)" />
      <circle
         style="fill:#f5ce09;fill-opacity:1;fill-rule:evenodd;stroke-width:0.232991"
         id="path1008"
         cx="-59.854996"
         cy="-415.68115"
         r="13.111111"
         transform="rotate(-4.2954687)" />
    </g>
  </g>
</svg>
